<?xml version="1.0" encoding="UTF-8"?><svg xmlns="http://www.w3.org/2000/svg" xmlns:xlink="http://www.w3.org/1999/xlink" fill-opacity="1" color-rendering="auto" color-interpolation="auto" text-rendering="auto" stroke="black" stroke-linecap="square" width="255" stroke-miterlimit="10" shape-rendering="auto" stroke-opacity="1" fill="black" stroke-dasharray="none" font-weight="normal" stroke-width="1" height="227" font-family="'Dialog'" font-style="normal" stroke-linejoin="miter" font-size="12px" stroke-dashoffset="0" image-rendering="auto">
  <!--Generated by ySVG 2.5-->
  <defs id="genericDefs"/>
  <g>
    <defs id="defs1">
      <clipPath clipPathUnits="userSpaceOnUse" id="clipPath1">
        <path d="M0 0 L255 0 L255 227 L0 227 L0 0 Z"/>
      </clipPath>
      <clipPath clipPathUnits="userSpaceOnUse" id="clipPath2">
        <path d="M-15 -15 L240 -15 L240 212 L-15 212 L-15 -15 Z"/>
      </clipPath>
    </defs>
    <g fill="white" text-rendering="geometricPrecision" shape-rendering="geometricPrecision" transform="translate(15,15)" stroke="white">
      <rect x="-15" width="255" height="227" y="-15" clip-path="url(#clipPath2)" stroke="none"/>
    </g>
    <g fill="rgb(255,255,153)" text-rendering="geometricPrecision" shape-rendering="geometricPrecision" transform="matrix(1,0,0,1,15,15)" stroke="rgb(255,255,153)">
      <circle r="19.5" clip-path="url(#clipPath2)" cx="84.7737" cy="19.5" stroke="none"/>
    </g>
    <g text-rendering="geometricPrecision" stroke-miterlimit="1.45" shape-rendering="geometricPrecision" transform="matrix(1,0,0,1,15,15)" stroke-linecap="butt">
      <circle fill="none" r="19.5" clip-path="url(#clipPath2)" cx="84.7737" cy="19.5"/>
      <text x="78.1737" font-size="22px" y="25.583" clip-path="url(#clipPath2)" font-family="'Courier'" stroke="none" xml:space="preserve">+</text>
    </g>
    <g fill="rgb(255,255,153)" text-rendering="geometricPrecision" shape-rendering="geometricPrecision" transform="matrix(1,0,0,1,15,15)" stroke="rgb(255,255,153)">
      <circle r="19.5" clip-path="url(#clipPath2)" cx="150.0475" cy="98.5" stroke="none"/>
    </g>
    <g text-rendering="geometricPrecision" stroke-miterlimit="1.45" shape-rendering="geometricPrecision" transform="matrix(1,0,0,1,15,15)" stroke-linecap="butt">
      <circle fill="none" r="19.5" clip-path="url(#clipPath2)" cx="150.0475" cy="98.5"/>
      <text x="143.4474" font-size="22px" y="104.583" clip-path="url(#clipPath2)" font-family="'Courier'" stroke="none" xml:space="preserve">*</text>
    </g>
    <g fill="rgb(255,255,153)" text-rendering="geometricPrecision" shape-rendering="geometricPrecision" transform="matrix(1,0,0,1,15,15)" stroke="rgb(255,255,153)">
      <circle r="19.5" clip-path="url(#clipPath2)" cx="204.5475" cy="177.5" stroke="none"/>
    </g>
    <g text-rendering="geometricPrecision" stroke-miterlimit="1.45" shape-rendering="geometricPrecision" transform="matrix(1,0,0,1,15,15)" stroke-linecap="butt">
      <circle fill="none" r="19.5" clip-path="url(#clipPath2)" cx="204.5475" cy="177.5"/>
      <text x="197.9474" font-size="22px" y="183.583" clip-path="url(#clipPath2)" font-family="'Courier'" stroke="none" xml:space="preserve">3</text>
    </g>
    <g fill="rgb(255,255,153)" text-rendering="geometricPrecision" shape-rendering="geometricPrecision" transform="matrix(1,0,0,1,15,15)" stroke="rgb(255,255,153)">
      <circle r="19.5" clip-path="url(#clipPath2)" cx="95.5475" cy="177.5" stroke="none"/>
    </g>
    <g text-rendering="geometricPrecision" stroke-miterlimit="1.45" shape-rendering="geometricPrecision" transform="matrix(1,0,0,1,15,15)" stroke-linecap="butt">
      <circle fill="none" r="19.5" clip-path="url(#clipPath2)" cx="95.5475" cy="177.5"/>
      <text x="88.9474" font-size="22px" y="183.583" clip-path="url(#clipPath2)" font-family="'Courier'" stroke="none" xml:space="preserve">2</text>
    </g>
    <g fill="rgb(255,255,153)" text-rendering="geometricPrecision" shape-rendering="geometricPrecision" transform="matrix(1,0,0,1,15,15)" stroke="rgb(255,255,153)">
      <circle r="19.5" clip-path="url(#clipPath2)" cx="19.5" cy="98.5" stroke="none"/>
    </g>
    <g text-rendering="geometricPrecision" stroke-miterlimit="1.45" shape-rendering="geometricPrecision" transform="matrix(1,0,0,1,15,15)" stroke-linecap="butt">
      <circle fill="none" r="19.5" clip-path="url(#clipPath2)" cx="19.5" cy="98.5"/>
      <text x="12.9" font-size="22px" y="104.583" clip-path="url(#clipPath2)" font-family="'Courier'" stroke="none" xml:space="preserve">1</text>
      <path fill="none" d="M97.1944 34.5326 L132.5312 77.3002" clip-path="url(#clipPath2)"/>
      <path d="M137.6268 83.4674 L133.8378 71.0319 L131.8942 76.5294 L126.1289 77.4014 Z" clip-path="url(#clipPath2)" stroke="none"/>
      <path fill="none" d="M161.1206 114.551 L188.9315 154.864" clip-path="url(#clipPath2)"/>
      <path d="M193.4743 161.449 L190.7757 148.7322 L188.3636 154.0408 L182.5444 154.4107 Z" clip-path="url(#clipPath2)" stroke="none"/>
      <path fill="none" d="M138.9743 114.551 L111.1635 154.864" clip-path="url(#clipPath2)"/>
      <path d="M106.6206 161.449 L117.5505 154.4107 L111.7313 154.0408 L109.3192 148.7322 Z" clip-path="url(#clipPath2)" stroke="none"/>
      <path fill="none" d="M72.3531 34.5326 L37.0163 77.3002" clip-path="url(#clipPath2)"/>
      <path d="M31.9206 83.4674 L43.4186 77.4014 L37.6532 76.5293 L35.7096 71.0319 Z" clip-path="url(#clipPath2)" stroke="none"/>
    </g>
  </g>
</svg>
