<?xml version="1.0" encoding="UTF-8"?><svg xmlns="http://www.w3.org/2000/svg" xmlns:xlink="http://www.w3.org/1999/xlink" fill-opacity="1" color-rendering="auto" color-interpolation="auto" text-rendering="auto" stroke="black" stroke-linecap="square" width="724" stroke-miterlimit="10" shape-rendering="auto" stroke-opacity="1" fill="black" stroke-dasharray="none" font-weight="normal" stroke-width="1" height="110" font-family="'Dialog'" font-style="normal" stroke-linejoin="miter" font-size="12px" stroke-dashoffset="0" image-rendering="auto">
  <!--Generated by ySVG 2.5-->
  <defs id="genericDefs"/>
  <g>
    <defs id="defs1">
      <clipPath clipPathUnits="userSpaceOnUse" id="clipPath1">
        <path d="M0 0 L724 0 L724 110 L0 110 L0 0 Z"/>
      </clipPath>
      <clipPath clipPathUnits="userSpaceOnUse" id="clipPath2">
        <path d="M157 218 L881 218 L881 328 L157 328 L157 218 Z"/>
      </clipPath>
    </defs>
    <g fill="white" text-rendering="geometricPrecision" shape-rendering="geometricPrecision" transform="translate(-157,-218)" stroke="white">
      <rect x="157" width="724" height="110" y="218" clip-path="url(#clipPath2)" stroke="none"/>
    </g>
    <g text-rendering="geometricPrecision" shape-rendering="geometricPrecision" transform="matrix(1,0,0,1,-157,-218)">
      <rect x="293.1018" width="112" height="55" y="233" clip-path="url(#clipPath2)" stroke="none"/>
      <rect stroke-linecap="butt" x="293.1018" y="233" clip-path="url(#clipPath2)" fill="none" width="112" height="55" stroke-miterlimit="1.45"/>
    </g>
    <g stroke-linecap="butt" font-size="17px" transform="matrix(1,0,0,1,-157,-218)" fill="white" text-rendering="geometricPrecision" font-family="'Courier'" shape-rendering="geometricPrecision" stroke="white" font-weight="bold" stroke-miterlimit="1.45">
      <text x="308.3019" xml:space="preserve" y="265.2515" clip-path="url(#clipPath2)" stroke="none">Frontend</text>
    </g>
    <g fill="rgb(153,204,0)" text-rendering="geometricPrecision" shape-rendering="geometricPrecision" transform="matrix(1,0,0,1,-157,-218)" stroke="rgb(153,204,0)">
      <path d="M199.6596 233 L223.6596 233 L239.6596 249 L239.6596 288 L199.6596 288 Z" stroke="none" clip-path="url(#clipPath2)"/>
    </g>
    <g text-rendering="geometricPrecision" stroke-miterlimit="1.45" shape-rendering="geometricPrecision" transform="matrix(1,0,0,1,-157,-218)" stroke-linecap="butt">
      <path fill="none" d="M199.6596 233 L223.6596 233 L239.6596 249 L239.6596 288 L199.6596 288 Z" clip-path="url(#clipPath2)"/>
      <path fill="none" d="M223.6596 233 L223.6596 249 L239.6596 249" clip-path="url(#clipPath2)"/>
      <text x="174.6593" font-size="15px" y="306.6151" clip-path="url(#clipPath2)" font-family="'Courier'" stroke="none" xml:space="preserve">Input File</text>
    </g>
    <g fill="rgb(255,102,0)" text-rendering="geometricPrecision" shape-rendering="geometricPrecision" transform="matrix(1,0,0,1,-157,-218)" stroke="rgb(255,102,0)">
      <path d="M789.4286 233 L813.4286 233 L829.4286 249 L829.4286 288 L789.4286 288 Z" stroke="none" clip-path="url(#clipPath2)"/>
    </g>
    <g text-rendering="geometricPrecision" stroke-miterlimit="1.45" shape-rendering="geometricPrecision" transform="matrix(1,0,0,1,-157,-218)" stroke-linecap="butt">
      <path fill="none" d="M789.4286 233 L813.4286 233 L829.4286 249 L829.4286 288 L789.4286 288 Z" clip-path="url(#clipPath2)"/>
      <path fill="none" d="M813.4286 233 L813.4286 249 L829.4286 249" clip-path="url(#clipPath2)"/>
      <text x="755.4282" font-size="15px" y="306.6151" clip-path="url(#clipPath2)" font-family="'Courier'" stroke="none" xml:space="preserve">Machine Code</text>
    </g>
    <g text-rendering="geometricPrecision" shape-rendering="geometricPrecision" transform="matrix(1,0,0,1,-157,-218)">
      <rect x="458.5441" width="112" height="55" y="233" clip-path="url(#clipPath2)" stroke="none"/>
      <rect stroke-linecap="butt" x="458.5441" y="233" clip-path="url(#clipPath2)" fill="none" width="112" height="55" stroke-miterlimit="1.45"/>
    </g>
    <g stroke-linecap="butt" font-size="17px" transform="matrix(1,0,0,1,-157,-218)" fill="white" text-rendering="geometricPrecision" font-family="'Courier'" shape-rendering="geometricPrecision" stroke="white" font-weight="bold" stroke-miterlimit="1.45">
      <text x="468.6442" xml:space="preserve" y="265.2515" clip-path="url(#clipPath2)" stroke="none">Optimizer</text>
    </g>
    <g text-rendering="geometricPrecision" shape-rendering="geometricPrecision" transform="matrix(1,0,0,1,-157,-218)">
      <rect x="623.9863" width="112" height="55" y="233" clip-path="url(#clipPath2)" stroke="none"/>
      <rect stroke-linecap="butt" x="623.9863" y="233" clip-path="url(#clipPath2)" fill="none" width="112" height="55" stroke-miterlimit="1.45"/>
    </g>
    <g stroke-linecap="butt" font-size="17px" transform="matrix(1,0,0,1,-157,-218)" fill="white" text-rendering="geometricPrecision" font-family="'Courier'" shape-rendering="geometricPrecision" stroke="white" font-weight="bold" stroke-miterlimit="1.45">
      <text x="644.2864" xml:space="preserve" y="265.2515" clip-path="url(#clipPath2)" stroke="none">Backend</text>
    </g>
    <g text-rendering="geometricPrecision" stroke-miterlimit="1.45" shape-rendering="geometricPrecision" transform="matrix(1,0,0,1,-157,-218)" stroke-linecap="butt">
      <path fill="none" d="M239.6637 260.5 L285.1018 260.5" clip-path="url(#clipPath2)"/>
      <path d="M293.1018 260.5 L281.1018 255.5 L284.1018 260.5 L281.1018 265.5 Z" clip-path="url(#clipPath2)" stroke="none"/>
      <path fill="none" d="M405.1018 260.5 L450.5441 260.5" clip-path="url(#clipPath2)"/>
      <path d="M458.5441 260.5 L446.5441 255.5 L449.5441 260.5 L446.5441 265.5 Z" clip-path="url(#clipPath2)" stroke="none"/>
      <path fill="none" d="M570.5441 260.5 L615.9863 260.5" clip-path="url(#clipPath2)"/>
      <path d="M623.9863 260.5 L611.9863 255.5 L614.9863 260.5 L611.9863 265.5 Z" clip-path="url(#clipPath2)" stroke="none"/>
      <path fill="none" d="M735.9863 260.5 L781.4543 260.5" clip-path="url(#clipPath2)"/>
      <path d="M789.4543 260.5 L777.4543 255.5 L780.4543 260.5 L777.4543 265.5 Z" clip-path="url(#clipPath2)" stroke="none"/>
    </g>
  </g>
</svg>
