<?xml version="1.0" encoding="UTF-8"?><svg xmlns="http://www.w3.org/2000/svg" xmlns:xlink="http://www.w3.org/1999/xlink" fill-opacity="1" color-rendering="auto" color-interpolation="auto" text-rendering="auto" stroke="black" stroke-linecap="square" width="792" stroke-miterlimit="10" shape-rendering="auto" stroke-opacity="1" fill="black" stroke-dasharray="none" font-weight="normal" stroke-width="1" height="435" font-family="'Dialog'" font-style="normal" stroke-linejoin="miter" font-size="12px" stroke-dashoffset="0" image-rendering="auto">
  <!--Generated by ySVG 2.5-->
  <defs id="genericDefs"/>
  <g>
    <defs id="defs1">
      <clipPath clipPathUnits="userSpaceOnUse" id="clipPath1">
        <path d="M0 0 L792 0 L792 435 L0 435 L0 0 Z"/>
      </clipPath>
      <clipPath clipPathUnits="userSpaceOnUse" id="clipPath2">
        <path d="M135 71 L927 71 L927 506 L135 506 L135 71 Z"/>
      </clipPath>
    </defs>
    <g fill="white" text-rendering="geometricPrecision" shape-rendering="geometricPrecision" transform="translate(-135,-71)" stroke="white">
      <rect x="135" width="792" height="435" y="71" clip-path="url(#clipPath2)" stroke="none"/>
    </g>
    <g text-rendering="geometricPrecision" shape-rendering="geometricPrecision" transform="matrix(1,0,0,1,-135,-71)">
      <rect x="293.1018" width="112" height="55" y="195" clip-path="url(#clipPath2)" stroke="none"/>
      <rect stroke-linecap="butt" x="293.1018" y="195" clip-path="url(#clipPath2)" fill="none" width="112" height="55" stroke-miterlimit="1.45"/>
    </g>
    <g stroke-linecap="butt" font-size="17px" transform="matrix(1,0,0,1,-135,-71)" fill="white" text-rendering="geometricPrecision" font-family="'Courier'" shape-rendering="geometricPrecision" stroke="white" font-weight="bold" stroke-miterlimit="1.45">
      <text x="333.8018" xml:space="preserve" y="217.604" clip-path="url(#clipPath2)" stroke="none">C++</text>
      <text x="308.3019" xml:space="preserve" y="236.899" clip-path="url(#clipPath2)" stroke="none">Frontend</text>
    </g>
    <g fill="rgb(153,204,0)" text-rendering="geometricPrecision" shape-rendering="geometricPrecision" transform="matrix(1,0,0,1,-135,-71)" stroke="rgb(153,204,0)">
      <path d="M177.6596 87 L201.6596 87 L217.6596 103 L217.6596 142 L177.6596 142 Z" stroke="none" clip-path="url(#clipPath2)"/>
    </g>
    <g text-rendering="geometricPrecision" stroke-miterlimit="1.45" shape-rendering="geometricPrecision" transform="matrix(1,0,0,1,-135,-71)" stroke-linecap="butt">
      <path fill="none" d="M177.6596 87 L201.6596 87 L217.6596 103 L217.6596 142 L177.6596 142 Z" clip-path="url(#clipPath2)"/>
      <path fill="none" d="M201.6596 87 L201.6596 103 L217.6596 103" clip-path="url(#clipPath2)"/>
      <text x="161.6593" font-size="15px" y="160.6151" clip-path="url(#clipPath2)" font-family="'Courier'" stroke="none" xml:space="preserve">*.c File</text>
    </g>
    <g fill="rgb(255,102,0)" text-rendering="geometricPrecision" shape-rendering="geometricPrecision" transform="matrix(1,0,0,1,-135,-71)" stroke="rgb(255,102,0)">
      <path d="M835.9863 195 L859.9863 195 L875.9863 211 L875.9863 250 L835.9863 250 Z" stroke="none" clip-path="url(#clipPath2)"/>
    </g>
    <g text-rendering="geometricPrecision" stroke-miterlimit="1.45" shape-rendering="geometricPrecision" transform="matrix(1,0,0,1,-135,-71)" stroke-linecap="butt">
      <path fill="none" d="M835.9863 195 L859.9863 195 L875.9863 211 L875.9863 250 L835.9863 250 Z" clip-path="url(#clipPath2)"/>
      <path fill="none" d="M859.9863 195 L859.9863 211 L875.9863 211" clip-path="url(#clipPath2)"/>
      <text x="801.986" font-size="15px" y="268.6151" clip-path="url(#clipPath2)" font-family="'Courier'" stroke="none" xml:space="preserve">Machine Code</text>
    </g>
    <g text-rendering="geometricPrecision" shape-rendering="geometricPrecision" transform="matrix(1,0,0,1,-135,-71)">
      <rect x="467.8229" width="112" height="55" y="252" clip-path="url(#clipPath2)" stroke="none"/>
      <rect stroke-linecap="butt" x="467.8229" y="252" clip-path="url(#clipPath2)" fill="none" width="112" height="55" stroke-miterlimit="1.45"/>
    </g>
    <g stroke-linecap="butt" font-size="17px" transform="matrix(1,0,0,1,-135,-71)" fill="white" text-rendering="geometricPrecision" font-family="'Courier'" shape-rendering="geometricPrecision" stroke="white" font-weight="bold" stroke-miterlimit="1.45">
      <text x="477.923" xml:space="preserve" y="284.2515" clip-path="url(#clipPath2)" stroke="none">Optimizer</text>
    </g>
    <g text-rendering="geometricPrecision" shape-rendering="geometricPrecision" transform="matrix(1,0,0,1,-135,-71)">
      <rect x="642.5441" width="124" height="55" y="195" clip-path="url(#clipPath2)" stroke="none"/>
      <rect stroke-linecap="butt" x="642.5441" y="195" clip-path="url(#clipPath2)" fill="none" width="124" height="55" stroke-miterlimit="1.45"/>
    </g>
    <g stroke-linecap="butt" font-size="17px" transform="matrix(1,0,0,1,-135,-71)" fill="white" text-rendering="geometricPrecision" font-family="'Courier'" shape-rendering="geometricPrecision" stroke="white" font-weight="bold" stroke-miterlimit="1.45">
      <text x="648.4442" xml:space="preserve" y="217.604" clip-path="url(#clipPath2)" stroke="none">WebAssembly</text>
      <text x="668.8441" xml:space="preserve" y="236.899" clip-path="url(#clipPath2)" stroke="none">Backend</text>
    </g>
    <g text-rendering="geometricPrecision" shape-rendering="geometricPrecision" transform="matrix(1,0,0,1,-135,-71)">
      <rect x="293.1018" width="112" height="55" y="303" clip-path="url(#clipPath2)" stroke="none"/>
      <rect stroke-linecap="butt" x="293.1018" y="303" clip-path="url(#clipPath2)" fill="none" width="112" height="55" stroke-miterlimit="1.45"/>
    </g>
    <g stroke-linecap="butt" font-size="17px" transform="matrix(1,0,0,1,-135,-71)" fill="white" text-rendering="geometricPrecision" font-family="'Courier'" shape-rendering="geometricPrecision" stroke="white" font-weight="bold" stroke-miterlimit="1.45">
      <text x="313.4019" xml:space="preserve" y="325.604" clip-path="url(#clipPath2)" stroke="none">Fortran</text>
      <text x="308.3019" xml:space="preserve" y="344.899" clip-path="url(#clipPath2)" stroke="none">Frontend</text>
    </g>
    <g text-rendering="geometricPrecision" shape-rendering="geometricPrecision" transform="matrix(1,0,0,1,-135,-71)">
      <rect x="293.1018" width="112" height="55" y="411" clip-path="url(#clipPath2)" stroke="none"/>
      <rect stroke-linecap="butt" x="293.1018" y="411" clip-path="url(#clipPath2)" fill="none" width="112" height="55" stroke-miterlimit="1.45"/>
    </g>
    <g stroke-linecap="butt" font-size="17px" transform="matrix(1,0,0,1,-135,-71)" fill="white" text-rendering="geometricPrecision" font-family="'Courier'" shape-rendering="geometricPrecision" stroke="white" font-weight="bold" stroke-miterlimit="1.45">
      <text x="313.4019" xml:space="preserve" y="433.604" clip-path="url(#clipPath2)" stroke="none">Uranium</text>
      <text x="308.3019" xml:space="preserve" y="452.899" clip-path="url(#clipPath2)" stroke="none">Frontend</text>
    </g>
    <g text-rendering="geometricPrecision" shape-rendering="geometricPrecision" transform="matrix(1,0,0,1,-135,-71)">
      <rect x="293.1018" width="112" height="55" y="87" clip-path="url(#clipPath2)" stroke="none"/>
      <rect stroke-linecap="butt" x="293.1018" y="87" clip-path="url(#clipPath2)" fill="none" width="112" height="55" stroke-miterlimit="1.45"/>
    </g>
    <g stroke-linecap="butt" font-size="17px" transform="matrix(1,0,0,1,-135,-71)" fill="white" text-rendering="geometricPrecision" font-family="'Courier'" shape-rendering="geometricPrecision" stroke="white" font-weight="bold" stroke-miterlimit="1.45">
      <text x="344.0018" xml:space="preserve" y="109.604" clip-path="url(#clipPath2)" stroke="none">C</text>
      <text x="308.3019" xml:space="preserve" y="128.899" clip-path="url(#clipPath2)" stroke="none">Frontend</text>
    </g>
    <g fill="rgb(153,204,0)" text-rendering="geometricPrecision" shape-rendering="geometricPrecision" transform="matrix(1,0,0,1,-135,-71)" stroke="rgb(153,204,0)">
      <path d="M177.6596 195 L201.6596 195 L217.6596 211 L217.6596 250 L177.6596 250 Z" stroke="none" clip-path="url(#clipPath2)"/>
    </g>
    <g text-rendering="geometricPrecision" stroke-miterlimit="1.45" shape-rendering="geometricPrecision" transform="matrix(1,0,0,1,-135,-71)" stroke-linecap="butt">
      <path fill="none" d="M177.6596 195 L201.6596 195 L217.6596 211 L217.6596 250 L177.6596 250 Z" clip-path="url(#clipPath2)"/>
      <path fill="none" d="M201.6596 195 L201.6596 211 L217.6596 211" clip-path="url(#clipPath2)"/>
      <text x="152.6593" font-size="15px" y="268.6151" clip-path="url(#clipPath2)" font-family="'Courier'" stroke="none" xml:space="preserve">*.cpp File</text>
    </g>
    <g fill="rgb(153,204,0)" text-rendering="geometricPrecision" shape-rendering="geometricPrecision" transform="matrix(1,0,0,1,-135,-71)" stroke="rgb(153,204,0)">
      <path d="M177.6596 303 L201.6596 303 L217.6596 319 L217.6596 358 L177.6596 358 Z" stroke="none" clip-path="url(#clipPath2)"/>
    </g>
    <g text-rendering="geometricPrecision" stroke-miterlimit="1.45" shape-rendering="geometricPrecision" transform="matrix(1,0,0,1,-135,-71)" stroke-linecap="butt">
      <path fill="none" d="M177.6596 303 L201.6596 303 L217.6596 319 L217.6596 358 L177.6596 358 Z" clip-path="url(#clipPath2)"/>
      <path fill="none" d="M201.6596 303 L201.6596 319 L217.6596 319" clip-path="url(#clipPath2)"/>
      <text x="161.6593" font-size="15px" y="376.6151" clip-path="url(#clipPath2)" font-family="'Courier'" stroke="none" xml:space="preserve">*.f File</text>
    </g>
    <g fill="rgb(153,204,0)" text-rendering="geometricPrecision" shape-rendering="geometricPrecision" transform="matrix(1,0,0,1,-135,-71)" stroke="rgb(153,204,0)">
      <path d="M177.6596 411 L201.6596 411 L217.6596 427 L217.6596 466 L177.6596 466 Z" stroke="none" clip-path="url(#clipPath2)"/>
    </g>
    <g text-rendering="geometricPrecision" stroke-miterlimit="1.45" shape-rendering="geometricPrecision" transform="matrix(1,0,0,1,-135,-71)" stroke-linecap="butt">
      <path fill="none" d="M177.6596 411 L201.6596 411 L217.6596 427 L217.6596 466 L177.6596 466 Z" clip-path="url(#clipPath2)"/>
      <path fill="none" d="M201.6596 411 L201.6596 427 L217.6596 427" clip-path="url(#clipPath2)"/>
      <text x="152.6593" font-size="15px" y="484.6151" clip-path="url(#clipPath2)" font-family="'Courier'" stroke="none" xml:space="preserve">*.ura File</text>
    </g>
    <g fill="rgb(255,102,0)" text-rendering="geometricPrecision" shape-rendering="geometricPrecision" transform="matrix(1,0,0,1,-135,-71)" stroke="rgb(255,102,0)">
      <path d="M835.9863 303 L859.9863 303 L875.9863 319 L875.9863 358 L835.9863 358 Z" stroke="none" clip-path="url(#clipPath2)"/>
    </g>
    <g text-rendering="geometricPrecision" stroke-miterlimit="1.45" shape-rendering="geometricPrecision" transform="matrix(1,0,0,1,-135,-71)" stroke-linecap="butt">
      <path fill="none" d="M835.9863 303 L859.9863 303 L875.9863 319 L875.9863 358 L835.9863 358 Z" clip-path="url(#clipPath2)"/>
      <path fill="none" d="M859.9863 303 L859.9863 319 L875.9863 319" clip-path="url(#clipPath2)"/>
      <text x="801.986" font-size="15px" y="376.6151" clip-path="url(#clipPath2)" font-family="'Courier'" stroke="none" xml:space="preserve">Machine Code</text>
    </g>
    <g text-rendering="geometricPrecision" shape-rendering="geometricPrecision" transform="matrix(1,0,0,1,-135,-71)">
      <rect x="642.5441" width="124" height="55" y="303" clip-path="url(#clipPath2)" stroke="none"/>
      <rect stroke-linecap="butt" x="642.5441" y="303" clip-path="url(#clipPath2)" fill="none" width="124" height="55" stroke-miterlimit="1.45"/>
    </g>
    <g stroke-linecap="butt" font-size="17px" transform="matrix(1,0,0,1,-135,-71)" fill="white" text-rendering="geometricPrecision" font-family="'Courier'" shape-rendering="geometricPrecision" stroke="white" font-weight="bold" stroke-miterlimit="1.45">
      <text x="668.8441" xml:space="preserve" y="325.604" clip-path="url(#clipPath2)" stroke="none">x_86_64</text>
      <text x="668.8441" xml:space="preserve" y="344.899" clip-path="url(#clipPath2)" stroke="none">Backend</text>
    </g>
    <g fill="rgb(255,102,0)" text-rendering="geometricPrecision" shape-rendering="geometricPrecision" transform="matrix(1,0,0,1,-135,-71)" stroke="rgb(255,102,0)">
      <path d="M835.9863 411 L859.9863 411 L875.9863 427 L875.9863 466 L835.9863 466 Z" stroke="none" clip-path="url(#clipPath2)"/>
    </g>
    <g text-rendering="geometricPrecision" stroke-miterlimit="1.45" shape-rendering="geometricPrecision" transform="matrix(1,0,0,1,-135,-71)" stroke-linecap="butt">
      <path fill="none" d="M835.9863 411 L859.9863 411 L875.9863 427 L875.9863 466 L835.9863 466 Z" clip-path="url(#clipPath2)"/>
      <path fill="none" d="M859.9863 411 L859.9863 427 L875.9863 427" clip-path="url(#clipPath2)"/>
      <text x="801.986" font-size="15px" y="484.6151" clip-path="url(#clipPath2)" font-family="'Courier'" stroke="none" xml:space="preserve">Machine Code</text>
    </g>
    <g text-rendering="geometricPrecision" shape-rendering="geometricPrecision" transform="matrix(1,0,0,1,-135,-71)">
      <rect x="642.5441" width="124" height="55" y="411" clip-path="url(#clipPath2)" stroke="none"/>
      <rect stroke-linecap="butt" x="642.5441" y="411" clip-path="url(#clipPath2)" fill="none" width="124" height="55" stroke-miterlimit="1.45"/>
    </g>
    <g stroke-linecap="butt" font-size="17px" transform="matrix(1,0,0,1,-135,-71)" fill="white" text-rendering="geometricPrecision" font-family="'Courier'" shape-rendering="geometricPrecision" stroke="white" font-weight="bold" stroke-miterlimit="1.45">
      <text x="689.2441" xml:space="preserve" y="433.604" clip-path="url(#clipPath2)" stroke="none">ARM</text>
      <text x="668.8441" xml:space="preserve" y="452.899" clip-path="url(#clipPath2)" stroke="none">Backend</text>
    </g>
    <g fill="rgb(255,102,0)" text-rendering="geometricPrecision" shape-rendering="geometricPrecision" transform="matrix(1,0,0,1,-135,-71)" stroke="rgb(255,102,0)">
      <path d="M835.9863 87 L859.9863 87 L875.9863 103 L875.9863 142 L835.9863 142 Z" stroke="none" clip-path="url(#clipPath2)"/>
    </g>
    <g text-rendering="geometricPrecision" stroke-miterlimit="1.45" shape-rendering="geometricPrecision" transform="matrix(1,0,0,1,-135,-71)" stroke-linecap="butt">
      <path fill="none" d="M835.9863 87 L859.9863 87 L875.9863 103 L875.9863 142 L835.9863 142 Z" clip-path="url(#clipPath2)"/>
      <path fill="none" d="M859.9863 87 L859.9863 103 L875.9863 103" clip-path="url(#clipPath2)"/>
      <text x="801.986" font-size="15px" y="160.6151" clip-path="url(#clipPath2)" font-family="'Courier'" stroke="none" xml:space="preserve">Machine Code</text>
    </g>
    <g text-rendering="geometricPrecision" shape-rendering="geometricPrecision" transform="matrix(1,0,0,1,-135,-71)">
      <rect x="642.5441" width="124" height="55" y="87" clip-path="url(#clipPath2)" stroke="none"/>
      <rect stroke-linecap="butt" x="642.5441" y="87" clip-path="url(#clipPath2)" fill="none" width="124" height="55" stroke-miterlimit="1.45"/>
    </g>
    <g stroke-linecap="butt" font-size="17px" transform="matrix(1,0,0,1,-135,-71)" fill="white" text-rendering="geometricPrecision" font-family="'Courier'" shape-rendering="geometricPrecision" stroke="white" font-weight="bold" stroke-miterlimit="1.45">
      <text x="684.1441" xml:space="preserve" y="109.604" clip-path="url(#clipPath2)" stroke="none">x_86</text>
      <text x="668.8441" xml:space="preserve" y="128.899" clip-path="url(#clipPath2)" stroke="none">Backend</text>
    </g>
    <g text-rendering="geometricPrecision" stroke-miterlimit="1.45" shape-rendering="geometricPrecision" transform="matrix(1,0,0,1,-135,-71)" stroke-linecap="butt">
      <path fill="none" d="M405.1018 222.5 L426.5 222.5 L462.4579 262.6991" clip-path="url(#clipPath2)"/>
      <path d="M467.7915 268.6618 L463.5178 256.3843 L461.7913 261.9538 L456.0645 263.0513 Z" clip-path="url(#clipPath2)" stroke="none"/>
      <path fill="none" d="M579.8413 268.3931 L618.5 222.5 L634.5441 222.5" clip-path="url(#clipPath2)"/>
      <path d="M642.5441 222.5 L630.5441 217.5 L633.5441 222.5 L630.5441 227.5 Z" clip-path="url(#clipPath2)" stroke="none"/>
      <path fill="none" d="M766.5441 222.5 L828.0278 222.5" clip-path="url(#clipPath2)"/>
      <path d="M836.0278 222.5 L824.0278 217.5 L827.0278 222.5 L824.0278 227.5 Z" clip-path="url(#clipPath2)" stroke="none"/>
      <path fill="none" d="M405.1018 330.5 L424.5 330.5 L462.206 291.9419" clip-path="url(#clipPath2)"/>
      <path d="M467.7993 286.2222 L455.8346 291.3059 L461.5069 292.6568 L462.9842 298.2975 Z" clip-path="url(#clipPath2)" stroke="none"/>
      <path fill="none" d="M405.1018 438.5 L428.5 438.5 L465.5739 311.4718" clip-path="url(#clipPath2)"/>
      <path d="M467.8152 303.7921 L459.6534 313.9107 L465.2937 312.4317 L469.253 316.7124 Z" clip-path="url(#clipPath2)" stroke="none"/>
      <path fill="none" d="M217.6621 114.5 L285.1018 114.5" clip-path="url(#clipPath2)"/>
      <path d="M293.1018 114.5 L281.1018 109.5 L284.1018 114.5 L281.1018 119.5 Z" clip-path="url(#clipPath2)" stroke="none"/>
      <path fill="none" d="M405.1018 114.5 L425.5 114.5 L466.4183 244.3474" clip-path="url(#clipPath2)"/>
      <path d="M468.8228 251.9775 L469.9849 239.0296 L466.1177 243.3937 L460.4473 242.0352 Z" clip-path="url(#clipPath2)" stroke="none"/>
      <path fill="none" d="M217.6621 222.5 L285.1018 222.5" clip-path="url(#clipPath2)"/>
      <path d="M293.1018 222.5 L281.1018 217.5 L284.1018 222.5 L281.1018 227.5 Z" clip-path="url(#clipPath2)" stroke="none"/>
      <path fill="none" d="M217.6621 330.5 L285.1018 330.5" clip-path="url(#clipPath2)"/>
      <path d="M293.1018 330.5 L281.1018 325.5 L284.1018 330.5 L281.1018 335.5 Z" clip-path="url(#clipPath2)" stroke="none"/>
      <path fill="none" d="M217.6621 438.5 L285.1018 438.5" clip-path="url(#clipPath2)"/>
      <path d="M293.1018 438.5 L281.1018 433.5 L284.1018 438.5 L281.1018 443.5 Z" clip-path="url(#clipPath2)" stroke="none"/>
      <path fill="none" d="M579.8472 292.6344 L617.5 330.5 L634.5441 330.5" clip-path="url(#clipPath2)"/>
      <path d="M642.5441 330.5 L630.5441 325.5 L633.5441 330.5 L630.5441 335.5 Z" clip-path="url(#clipPath2)" stroke="none"/>
      <path fill="none" d="M766.5441 330.5 L828.0278 330.5" clip-path="url(#clipPath2)"/>
      <path d="M836.0278 330.5 L824.0278 325.5 L827.0278 330.5 L824.0278 335.5 Z" clip-path="url(#clipPath2)" stroke="none"/>
      <path fill="none" d="M579.4624 307.0222 L617.5 438.5 L634.5441 438.5" clip-path="url(#clipPath2)"/>
      <path d="M642.5441 438.5 L630.5441 433.5 L633.5441 438.5 L630.5441 443.5 Z" clip-path="url(#clipPath2)" stroke="none"/>
      <path fill="none" d="M766.5441 438.5 L828.0278 438.5" clip-path="url(#clipPath2)"/>
      <path d="M836.0278 438.5 L824.0278 433.5 L827.0278 438.5 L824.0278 443.5 Z" clip-path="url(#clipPath2)" stroke="none"/>
      <path fill="none" d="M579.8242 254.323 L620.5 114.5 L634.5441 114.5" clip-path="url(#clipPath2)"/>
      <path d="M642.5441 114.5 L630.5441 109.5 L633.5441 114.5 L630.5441 119.5 Z" clip-path="url(#clipPath2)" stroke="none"/>
      <path fill="none" d="M766.5441 114.5 L828.0278 114.5" clip-path="url(#clipPath2)"/>
      <path d="M836.0278 114.5 L824.0278 109.5 L827.0278 114.5 L824.0278 119.5 Z" clip-path="url(#clipPath2)" stroke="none"/>
    </g>
  </g>
</svg>
