<?xml version="1.0" encoding="UTF-8"?><svg xmlns="http://www.w3.org/2000/svg" xmlns:xlink="http://www.w3.org/1999/xlink" fill-opacity="1" color-rendering="auto" color-interpolation="auto" text-rendering="auto" stroke="black" stroke-linecap="square" width="1288" stroke-miterlimit="10" shape-rendering="auto" stroke-opacity="1" fill="black" stroke-dasharray="none" font-weight="normal" stroke-width="1" height="243" font-family="'Dialog'" font-style="normal" stroke-linejoin="miter" font-size="12px" stroke-dashoffset="0" image-rendering="auto">
  <!--Generated by ySVG 2.5-->
  <defs id="genericDefs"/>
  <g>
    <defs id="defs1">
      <clipPath clipPathUnits="userSpaceOnUse" id="clipPath1">
        <path d="M0 0 L1288 0 L1288 243 L0 243 L0 0 Z"/>
      </clipPath>
      <clipPath clipPathUnits="userSpaceOnUse" id="clipPath2">
        <path d="M157 139 L1445 139 L1445 382 L157 382 L157 139 Z"/>
      </clipPath>
    </defs>
    <g fill="white" text-rendering="geometricPrecision" shape-rendering="geometricPrecision" transform="translate(-157,-139)" stroke="white">
      <rect x="157" width="1288" height="243" y="139" clip-path="url(#clipPath2)" stroke="none"/>
    </g>
    <g text-rendering="geometricPrecision" stroke-miterlimit="1.45" stroke-dasharray="6,2" shape-rendering="geometricPrecision" transform="matrix(1,0,0,1,-157,-139)" stroke-linecap="butt">
      <rect fill="none" x="435.1018" width="436.5653" height="211.8845" y="154.5578" clip-path="url(#clipPath2)"/>
    </g>
    <g font-size="25px" stroke-linecap="butt" transform="matrix(1,0,0,1,-157,-139)" text-rendering="geometricPrecision" font-family="'Courier'" shape-rendering="geometricPrecision" font-weight="bold" stroke-miterlimit="1.45">
      <text x="615.8843" xml:space="preserve" y="190.0443" clip-path="url(#clipPath2)" stroke="none">Bison</text>
    </g>
    <g text-rendering="geometricPrecision" shape-rendering="geometricPrecision" transform="matrix(1,0,0,1,-157,-139)">
      <rect x="293.1018" width="112" height="55" y="233" clip-path="url(#clipPath2)" stroke="none"/>
      <rect stroke-linecap="butt" x="293.1018" y="233" clip-path="url(#clipPath2)" fill="none" width="112" height="55" stroke-miterlimit="1.45"/>
    </g>
    <g stroke-linecap="butt" font-size="17px" transform="matrix(1,0,0,1,-157,-139)" fill="white" text-rendering="geometricPrecision" font-family="'Courier'" shape-rendering="geometricPrecision" stroke="white" font-weight="bold" stroke-miterlimit="1.45">
      <text x="313.4019" xml:space="preserve" y="255.604" clip-path="url(#clipPath2)" stroke="none">Lexical</text>
      <text x="308.3019" xml:space="preserve" y="274.899" clip-path="url(#clipPath2)" stroke="none">Analyzer</text>
    </g>
    <g fill="rgb(153,204,0)" text-rendering="geometricPrecision" shape-rendering="geometricPrecision" transform="matrix(1,0,0,1,-157,-139)" stroke="rgb(153,204,0)">
      <path d="M199.6596 233 L223.6596 233 L239.6596 249 L239.6596 288 L199.6596 288 Z" stroke="none" clip-path="url(#clipPath2)"/>
    </g>
    <g text-rendering="geometricPrecision" stroke-miterlimit="1.45" shape-rendering="geometricPrecision" transform="matrix(1,0,0,1,-157,-139)" stroke-linecap="butt">
      <path fill="none" d="M199.6596 233 L223.6596 233 L239.6596 249 L239.6596 288 L199.6596 288 Z" clip-path="url(#clipPath2)"/>
      <path fill="none" d="M223.6596 233 L223.6596 249 L239.6596 249" clip-path="url(#clipPath2)"/>
      <text x="174.6593" font-size="15px" y="306.6151" clip-path="url(#clipPath2)" font-family="'Courier'" stroke="none" xml:space="preserve">Input File</text>
    </g>
    <g fill="rgb(255,102,0)" text-rendering="geometricPrecision" shape-rendering="geometricPrecision" transform="matrix(1,0,0,1,-157,-139)" stroke="rgb(255,102,0)">
      <path d="M1353.1656 233 L1377.1656 233 L1393.1656 249 L1393.1656 288 L1353.1656 288 Z" stroke="none" clip-path="url(#clipPath2)"/>
    </g>
    <g text-rendering="geometricPrecision" stroke-miterlimit="1.45" shape-rendering="geometricPrecision" transform="matrix(1,0,0,1,-157,-139)" stroke-linecap="butt">
      <path fill="none" d="M1353.1656 233 L1377.1656 233 L1393.1656 249 L1393.1656 288 L1353.1656 288 Z" clip-path="url(#clipPath2)"/>
      <path fill="none" d="M1377.1656 233 L1377.1656 249 L1393.1656 249" clip-path="url(#clipPath2)"/>
      <text x="1319.1653" font-size="15px" y="306.6151" clip-path="url(#clipPath2)" font-family="'Courier'" stroke="none" xml:space="preserve">Machine Code</text>
    </g>
    <g text-rendering="geometricPrecision" shape-rendering="geometricPrecision" transform="matrix(1,0,0,1,-157,-139)">
      <rect x="458.5441" width="112" height="55" y="233" clip-path="url(#clipPath2)" stroke="none"/>
      <rect stroke-linecap="butt" x="458.5441" y="233" clip-path="url(#clipPath2)" fill="none" width="112" height="55" stroke-miterlimit="1.45"/>
    </g>
    <g stroke-linecap="butt" font-size="17px" transform="matrix(1,0,0,1,-157,-139)" fill="white" text-rendering="geometricPrecision" font-family="'Courier'" shape-rendering="geometricPrecision" stroke="white" font-weight="bold" stroke-miterlimit="1.45">
      <text x="483.9441" xml:space="preserve" y="255.604" clip-path="url(#clipPath2)" stroke="none">Syntax</text>
      <text x="473.7441" xml:space="preserve" y="274.899" clip-path="url(#clipPath2)" stroke="none">Analyzer</text>
    </g>
    <g text-rendering="geometricPrecision" shape-rendering="geometricPrecision" transform="matrix(1,0,0,1,-157,-139)">
      <rect x="623.9863" width="112" height="55" y="233" clip-path="url(#clipPath2)" stroke="none"/>
      <rect stroke-linecap="butt" x="623.9863" y="233" clip-path="url(#clipPath2)" fill="none" width="112" height="55" stroke-miterlimit="1.45"/>
    </g>
    <g stroke-linecap="butt" font-size="17px" transform="matrix(1,0,0,1,-157,-139)" fill="white" text-rendering="geometricPrecision" font-family="'Courier'" shape-rendering="geometricPrecision" stroke="white" font-weight="bold" stroke-miterlimit="1.45">
      <text x="639.1864" xml:space="preserve" y="255.604" clip-path="url(#clipPath2)" stroke="none">Semantic</text>
      <text x="639.1864" xml:space="preserve" y="274.899" clip-path="url(#clipPath2)" stroke="none">Analyzer</text>
    </g>
    <g text-rendering="geometricPrecision" shape-rendering="geometricPrecision" transform="matrix(1,0,0,1,-157,-139)">
      <rect x="789.4286" width="154" height="55" y="233" clip-path="url(#clipPath2)" stroke="none"/>
      <rect stroke-linecap="butt" x="789.4286" y="233" clip-path="url(#clipPath2)" fill="none" width="154" height="55" stroke-miterlimit="1.45"/>
    </g>
    <g stroke-linecap="butt" font-size="17px" transform="matrix(1,0,0,1,-157,-139)" fill="white" text-rendering="geometricPrecision" font-family="'Courier'" shape-rendering="geometricPrecision" stroke="white" font-weight="bold" stroke-miterlimit="1.45">
      <text x="805.2287" xml:space="preserve" y="255.604" clip-path="url(#clipPath2)" stroke="none">Intermediate</text>
      <text x="795.0287" xml:space="preserve" y="274.899" clip-path="url(#clipPath2)" stroke="none">Code Generator</text>
    </g>
    <g text-rendering="geometricPrecision" shape-rendering="geometricPrecision" transform="matrix(1,0,0,1,-157,-139)">
      <rect x="996.8708" width="112" height="55" y="233" clip-path="url(#clipPath2)" stroke="none"/>
      <rect stroke-linecap="butt" x="996.8708" y="233" clip-path="url(#clipPath2)" fill="none" width="112" height="55" stroke-miterlimit="1.45"/>
    </g>
    <g stroke-linecap="butt" font-size="17px" transform="matrix(1,0,0,1,-157,-139)" fill="white" text-rendering="geometricPrecision" font-family="'Courier'" shape-rendering="geometricPrecision" stroke="white" font-weight="bold" stroke-miterlimit="1.45">
      <text x="1006.9709" xml:space="preserve" y="265.2515" clip-path="url(#clipPath2)" stroke="none">Optimizer</text>
    </g>
    <g text-rendering="geometricPrecision" shape-rendering="geometricPrecision" transform="matrix(1,0,0,1,-157,-139)">
      <rect x="1162.3131" width="137.4103" height="55" y="233" clip-path="url(#clipPath2)" stroke="none"/>
      <rect stroke-linecap="butt" x="1162.3131" y="233" clip-path="url(#clipPath2)" fill="none" width="137.4103" height="55" stroke-miterlimit="1.45"/>
    </g>
    <g stroke-linecap="butt" font-size="17px" transform="matrix(1,0,0,1,-157,-139)" fill="white" text-rendering="geometricPrecision" font-family="'Courier'" shape-rendering="geometricPrecision" stroke="white" font-weight="bold" stroke-miterlimit="1.45">
      <text x="1169.8184" xml:space="preserve" y="255.604" clip-path="url(#clipPath2)" stroke="none">Machine Code</text>
      <text x="1185.1183" xml:space="preserve" y="274.899" clip-path="url(#clipPath2)" stroke="none">Generator</text>
    </g>
    <g text-rendering="geometricPrecision" stroke-miterlimit="1.45" stroke-dasharray="6,2" shape-rendering="geometricPrecision" transform="matrix(1,0,0,1,-157,-139)" stroke-linecap="butt">
      <rect fill="none" x="269.6596" width="154" height="211.8845" y="154.5578" clip-path="url(#clipPath2)"/>
    </g>
    <g font-size="25px" stroke-linecap="butt" transform="matrix(1,0,0,1,-157,-139)" text-rendering="geometricPrecision" font-family="'Courier'" shape-rendering="geometricPrecision" font-weight="bold" stroke-miterlimit="1.45">
      <text x="316.6595" xml:space="preserve" y="190.0443" clip-path="url(#clipPath2)" stroke="none">Flex</text>
      <path fill="none" d="M239.6637 260.5 L285.1018 260.5" clip-path="url(#clipPath2)"/>
      <path d="M293.1018 260.5 L281.1018 255.5 L284.1018 260.5 L281.1018 265.5 Z" stroke="none" clip-path="url(#clipPath2)"/>
      <path fill="none" d="M405.1018 260.5 L450.5441 260.5" clip-path="url(#clipPath2)"/>
      <path d="M458.5441 260.5 L446.5441 255.5 L449.5441 260.5 L446.5441 265.5 Z" stroke="none" clip-path="url(#clipPath2)"/>
      <path fill="none" d="M570.5441 260.5 L615.9863 260.5" clip-path="url(#clipPath2)"/>
      <path d="M623.9863 260.5 L611.9863 255.5 L614.9863 260.5 L611.9863 265.5 Z" stroke="none" clip-path="url(#clipPath2)"/>
      <path fill="none" d="M735.9863 260.5 L781.4286 260.5" clip-path="url(#clipPath2)"/>
      <path d="M789.4286 260.5 L777.4286 255.5 L780.4286 260.5 L777.4286 265.5 Z" stroke="none" clip-path="url(#clipPath2)"/>
      <path fill="none" d="M943.4286 260.5 L988.8708 260.5" clip-path="url(#clipPath2)"/>
      <path d="M996.8708 260.5 L984.8708 255.5 L987.8708 260.5 L984.8708 265.5 Z" stroke="none" clip-path="url(#clipPath2)"/>
      <path fill="none" d="M1108.8708 260.5 L1154.3131 260.5" clip-path="url(#clipPath2)"/>
      <path d="M1162.3131 260.5 L1150.3131 255.5 L1153.3131 260.5 L1150.3131 265.5 Z" stroke="none" clip-path="url(#clipPath2)"/>
      <path fill="none" d="M1299.7234 260.5 L1345.1914 260.5" clip-path="url(#clipPath2)"/>
      <path d="M1353.1914 260.5 L1341.1914 255.5 L1344.1914 260.5 L1341.1914 265.5 Z" stroke="none" clip-path="url(#clipPath2)"/>
    </g>
  </g>
</svg>
