<?xml version="1.0" encoding="UTF-8"?><svg xmlns="http://www.w3.org/2000/svg" xmlns:xlink="http://www.w3.org/1999/xlink" fill-opacity="1" color-rendering="auto" color-interpolation="auto" text-rendering="auto" stroke="black" stroke-linecap="square" width="665" stroke-miterlimit="10" shape-rendering="auto" stroke-opacity="1" fill="black" stroke-dasharray="none" font-weight="normal" stroke-width="1" height="187" font-family="'Dialog'" font-style="normal" stroke-linejoin="miter" font-size="12px" stroke-dashoffset="0" image-rendering="auto">
  <!--Generated by ySVG 2.5-->
  <defs id="genericDefs"/>
  <g>
    <defs id="defs1">
      <clipPath clipPathUnits="userSpaceOnUse" id="clipPath1">
        <path d="M0 0 L665 0 L665 187 L0 187 L0 0 Z"/>
      </clipPath>
      <clipPath clipPathUnits="userSpaceOnUse" id="clipPath2">
        <path d="M-267 -15 L398 -15 L398 172 L-267 172 L-267 -15 Z"/>
      </clipPath>
    </defs>
    <g fill="white" text-rendering="geometricPrecision" shape-rendering="geometricPrecision" transform="translate(267,15)" stroke="white">
      <rect x="-267" width="665" height="187" y="-15" clip-path="url(#clipPath2)" stroke="none"/>
    </g>
    <g font-size="22px" stroke-linecap="butt" transform="matrix(1,0,0,1,267,15)" text-rendering="geometricPrecision" font-family="'Courier'" shape-rendering="geometricPrecision" stroke-miterlimit="1.45">
      <text x="-10.1" xml:space="preserve" y="25.583" clip-path="url(#clipPath2)" stroke="none">+</text>
      <text x="127.9" xml:space="preserve" y="25.583" clip-path="url(#clipPath2)" stroke="none">*</text>
      <text x="196.9" xml:space="preserve" y="25.583" clip-path="url(#clipPath2)" stroke="none">3</text>
      <text x="58.9" xml:space="preserve" y="25.583" clip-path="url(#clipPath2)" stroke="none">2</text>
      <text x="-79.1" xml:space="preserve" y="25.583" clip-path="url(#clipPath2)" stroke="none">1</text>
    </g>
    <g fill="rgb(255,255,153)" text-rendering="geometricPrecision" shape-rendering="geometricPrecision" transform="matrix(1,0,0,1,267,15)" stroke="rgb(255,255,153)">
      <path d="M-252 142 L-241.7 127 L-159.3001 127 L-149 142 L-159.3001 157 L-241.7 157 Z" fill-rule="evenodd" clip-path="url(#clipPath2)" stroke="none"/>
    </g>
    <g text-rendering="geometricPrecision" stroke-miterlimit="1.45" shape-rendering="geometricPrecision" transform="matrix(1,0,0,1,267,15)" stroke-linecap="butt">
      <path fill="none" d="M-252 142 L-241.7 127 L-159.3001 127 L-149 142 L-159.3001 157 L-241.7 157 Z" fill-rule="evenodd" clip-path="url(#clipPath2)"/>
      <text x="-233.5001" font-size="22px" y="148.083" clip-path="url(#clipPath2)" font-family="'Courier'" stroke="none" xml:space="preserve">num,1</text>
      <text x="-148.1" font-size="22px" y="25.583" clip-path="url(#clipPath2)" font-family="'Courier'" stroke="none" xml:space="preserve">"</text>
      <text x="265.9" font-size="22px" y="25.583" clip-path="url(#clipPath2)" font-family="'Courier'" stroke="none" xml:space="preserve">"</text>
    </g>
    <g fill="rgb(255,255,153)" text-rendering="geometricPrecision" shape-rendering="geometricPrecision" transform="matrix(1,0,0,1,267,15)" stroke="rgb(255,255,153)">
      <path d="M-119 142 L-108.7 127 L-26.3 127 L-16 142 L-26.3 157 L-108.7 157 Z" fill-rule="evenodd" clip-path="url(#clipPath2)" stroke="none"/>
    </g>
    <g text-rendering="geometricPrecision" stroke-miterlimit="1.45" shape-rendering="geometricPrecision" transform="matrix(1,0,0,1,267,15)" stroke-linecap="butt">
      <path fill="none" d="M-119 142 L-108.7 127 L-26.3 127 L-16 142 L-26.3 157 L-108.7 157 Z" fill-rule="evenodd" clip-path="url(#clipPath2)"/>
      <text x="-100.5001" font-size="22px" y="148.083" clip-path="url(#clipPath2)" font-family="'Courier'" stroke="none" xml:space="preserve">sum,+</text>
    </g>
    <g fill="rgb(255,255,153)" text-rendering="geometricPrecision" shape-rendering="geometricPrecision" transform="matrix(1,0,0,1,267,15)" stroke="rgb(255,255,153)">
      <path d="M147 142 L157.3 127 L239.7 127 L250 142 L239.7 157 L157.3 157 Z" fill-rule="evenodd" clip-path="url(#clipPath2)" stroke="none"/>
    </g>
    <g text-rendering="geometricPrecision" stroke-miterlimit="1.45" shape-rendering="geometricPrecision" transform="matrix(1,0,0,1,267,15)" stroke-linecap="butt">
      <path fill="none" d="M147 142 L157.3 127 L239.7 127 L250 142 L239.7 157 L157.3 157 Z" fill-rule="evenodd" clip-path="url(#clipPath2)"/>
      <text x="158.8999" font-size="22px" y="148.083" clip-path="url(#clipPath2)" font-family="'Courier'" stroke="none" xml:space="preserve">prod,*</text>
    </g>
    <g fill="rgb(255,255,153)" text-rendering="geometricPrecision" shape-rendering="geometricPrecision" transform="matrix(1,0,0,1,267,15)" stroke="rgb(255,255,153)">
      <path d="M14 142 L24.3 127 L106.7 127 L117 142 L106.7 157 L24.3 157 Z" fill-rule="evenodd" clip-path="url(#clipPath2)" stroke="none"/>
    </g>
    <g text-rendering="geometricPrecision" stroke-miterlimit="1.45" shape-rendering="geometricPrecision" transform="matrix(1,0,0,1,267,15)" stroke-linecap="butt">
      <path fill="none" d="M14 142 L24.3 127 L106.7 127 L117 142 L106.7 157 L24.3 157 Z" fill-rule="evenodd" clip-path="url(#clipPath2)"/>
      <text x="32.4999" font-size="22px" y="148.083" clip-path="url(#clipPath2)" font-family="'Courier'" stroke="none" xml:space="preserve">num,2</text>
    </g>
    <g fill="rgb(255,255,153)" text-rendering="geometricPrecision" shape-rendering="geometricPrecision" transform="matrix(1,0,0,1,267,15)" stroke="rgb(255,255,153)">
      <path d="M280 142 L290.3 127 L372.7 127 L383 142 L372.7 157 L290.3 157 Z" fill-rule="evenodd" clip-path="url(#clipPath2)" stroke="none"/>
    </g>
    <g text-rendering="geometricPrecision" stroke-miterlimit="1.45" shape-rendering="geometricPrecision" transform="matrix(1,0,0,1,267,15)" stroke-linecap="butt">
      <path fill="none" d="M280 142 L290.3 127 L372.7 127 L383 142 L372.7 157 L290.3 157 Z" fill-rule="evenodd" clip-path="url(#clipPath2)"/>
      <text x="298.4999" font-size="22px" y="148.083" clip-path="url(#clipPath2)" font-family="'Courier'" stroke="none" xml:space="preserve">num,3</text>
      <path fill="none" d="M-86.5879 32.9826 L-179.063 121.4841" clip-path="url(#clipPath2)"/>
      <path d="M-184.8427 127.0154 L-172.7161 122.3307 L-178.3405 120.7927 L-179.6302 115.1062 Z" clip-path="url(#clipPath2)" stroke="none"/>
      <path fill="none" d="M-12.5297 36.7834 L-55.9714 119.9335" clip-path="url(#clipPath2)"/>
      <path d="M-59.6759 127.0241 L-49.6875 118.7035 L-55.5083 119.0472 L-58.5508 114.0729 Z" clip-path="url(#clipPath2)" stroke="none"/>
      <path fill="none" d="M143.5297 36.7834 L186.9714 119.9335" clip-path="url(#clipPath2)"/>
      <path d="M190.6759 127.0241 L189.5508 114.0729 L186.5083 119.0472 L180.6875 118.7035 Z" clip-path="url(#clipPath2)" stroke="none"/>
      <path fill="none" d="M65.5 39 L65.5 118.9875" clip-path="url(#clipPath2)"/>
      <path d="M65.5 126.9875 L70.5 114.9875 L65.5 117.9875 L60.5 114.9875 Z" clip-path="url(#clipPath2)" stroke="none"/>
      <path fill="none" d="M217.5879 32.9826 L310.063 121.4841" clip-path="url(#clipPath2)"/>
      <path d="M315.8427 127.0154 L310.6302 115.1062 L309.3405 120.7927 L303.7161 122.3307 Z" clip-path="url(#clipPath2)" stroke="none"/>
    </g>
  </g>
</svg>
